<svg width="360" height="412" viewBox="0 0 360 412" fill="none" xmlns="http://www.w3.org/2000/svg">
<path fill-rule="evenodd" clip-rule="evenodd" d="M176.969 0.0588578C178.668 -0.101119 180.335 0.0648569 181.968 0.558786C238.583 25.8462 297.905 37.3445 359.937 35.0539C360.104 92.3797 359.937 149.705 359.437 207.029C356.191 246.452 342.193 281.447 317.445 312.014C279.368 355.914 233.542 389.242 179.969 412C129.386 390.466 85.5603 359.471 48.4918 319.013C27.5514 294.468 12.887 266.472 4.49946 235.025C2.51281 225.45 1.18004 215.785 0.500163 206.029C-0.166721 149.038 -0.166721 92.0457 0.500163 35.0539C48.0778 36.8746 94.5697 30.3755 139.976 15.5566C152.855 11.4382 165.185 6.27197 176.969 0.0588578Z" fill="#010203"/>
<path fill-rule="evenodd" clip-rule="evenodd" d="M307.947 45.0524C321.935 45.6813 335.933 46.0152 349.939 46.0522C350.233 100.057 349.9 154.049 348.939 208.029C347.941 154.54 347.608 100.88 347.94 47.0521C332.538 47.432 319.207 46.7651 307.947 45.0524Z" fill="#176CA1"/>
<path fill-rule="evenodd" clip-rule="evenodd" d="M307.946 45.0524C319.206 46.7652 332.538 47.4321 347.939 47.0521C347.607 100.88 347.94 154.54 348.939 208.029C346.138 240.939 334.974 270.602 315.445 297.016C290.909 328.892 261.414 355.055 226.96 375.505C212.439 384.268 197.442 392.267 181.968 399.502C180.636 400.169 179.302 400.169 177.969 399.502C136.16 380.673 99.0008 355.177 66.4885 323.013C49.2825 304.943 35.2849 284.613 24.4958 262.021C17.0901 245.467 12.7569 228.135 11.4981 210.029C10.9982 155.371 10.8312 100.712 10.9982 46.0523C69.5829 46.5662 125.74 35.2348 179.469 12.0571C220.854 29.1387 263.68 40.1371 307.946 45.0524Z" fill="#135884"/>
<path fill-rule="evenodd" clip-rule="evenodd" d="M40.993 93.0454C71.5396 91.9446 97.3681 102.276 118.479 124.041C119.146 125.374 119.812 126.708 120.479 128.04C122.407 137.98 124.073 147.979 125.478 158.036C129.307 171.364 135.972 183.029 145.475 193.031C141.72 178.578 142.386 164.246 147.474 150.037C148.526 145.947 150.859 143.947 154.473 144.038C165.087 150.752 171.919 160.251 174.97 172.534C179.01 173.361 183.009 173.194 186.967 172.034C190.114 160.216 196.78 151.05 206.964 144.538C208.723 143.74 210.389 143.907 211.963 145.038C218.115 156.95 220.281 169.616 218.462 183.033C217.087 187.808 215.754 192.473 214.463 197.031C222.75 189.067 229.083 179.735 233.459 169.035C236.986 155.873 239.652 142.542 241.458 129.04C247.72 119.445 255.885 111.946 265.954 106.544C285.799 95.1211 306.962 91.2887 329.443 95.0452C330.699 95.3951 331.033 96.062 330.442 97.0449C320.996 103.594 315.331 112.593 313.445 124.041C311.779 138.374 314.111 152.039 320.444 165.035C324.653 172.959 329.486 180.458 334.942 187.532C302.188 195.833 285.858 216.996 285.95 251.023C275.638 250.017 265.306 249.851 254.956 250.523C241.498 252.848 231.166 259.68 223.961 271.02C227.26 276.583 228.927 282.582 228.96 289.017C214.574 286.649 202.409 290.648 192.467 301.016C188.707 306.198 184.708 311.197 180.469 316.014C174.637 306.182 166.804 298.349 156.973 292.517C148.614 289.385 139.949 288.219 130.977 289.017C131.422 282.683 133.088 276.684 135.976 271.02C133.586 265.793 129.92 261.626 124.978 258.522C118.254 254.279 110.922 251.614 102.982 250.523C93.6228 249.802 84.2914 249.969 74.987 251.023C75.268 216.831 58.9368 195.668 25.9956 187.532C41.7369 169.304 48.9026 148.14 47.4918 124.041C45.4432 112.266 39.6112 102.934 29.9949 96.045C33.6563 94.6432 37.3226 93.6434 40.993 93.0454Z" fill="#010102"/>
<path fill-rule="evenodd" clip-rule="evenodd" d="M208.964 268.021C209.96 267.935 210.792 268.268 211.463 269.02C213.675 272.324 215.508 275.823 216.962 279.519C209.887 280.654 203.388 283.153 197.466 287.018C196.799 286.351 196.799 285.685 197.466 285.018C201.911 279.744 205.743 274.079 208.964 268.021Z" fill="#454547"/>
<path fill-rule="evenodd" clip-rule="evenodd" d="M149.974 267.021C154.392 273.286 159.058 279.452 163.972 285.518C157.508 283.23 150.842 281.231 143.975 279.519C145.844 275.282 147.843 271.115 149.974 267.021Z" fill="#454547"/>
<path fill-rule="evenodd" clip-rule="evenodd" d="M112.98 143.038C115.321 170.555 127.653 192.384 149.974 208.529C156.363 212.9 163.362 215.233 170.97 215.528C161.327 209.418 157.328 200.919 158.972 190.032C157.737 190.778 156.403 191.111 154.973 191.032C150.963 179.271 151.129 167.607 155.473 156.037C158.299 159.02 160.631 162.353 162.472 166.035C164.668 171.625 166.668 177.292 168.471 183.033C176.884 182.05 185.383 181.716 193.966 182.033C195.745 172.187 199.91 163.523 206.464 156.037C211.086 166.96 211.086 177.958 206.464 189.032C205.723 190.173 204.889 190.173 203.965 189.032C203.273 189.557 202.773 190.224 202.465 191.032C204.295 201.705 200.461 209.704 190.967 215.028C195.04 215.854 199.039 215.354 202.965 213.528C220.854 205.304 233.685 192.139 241.458 174.034C244.734 164.261 247.067 154.263 248.457 144.038C267.256 173.569 276.254 205.898 275.452 241.024C252.801 238.132 233.804 245.131 218.462 262.021C214.663 258.288 213.997 253.955 216.462 249.023C217.747 237.359 216.414 226.028 212.463 215.028C213.746 235.225 209.081 253.89 198.466 271.02C192.959 280.034 186.961 288.7 180.469 297.016C165.953 279.986 155.622 260.656 149.474 239.025C148.434 231.395 147.768 223.729 147.474 216.028C142.087 229.383 141.587 242.881 145.975 256.522C144.475 258.689 142.975 260.855 141.475 263.021C126.808 245.405 107.977 238.073 84.9854 241.024C85.3233 205.661 94.6547 172.999 112.98 143.038Z" fill="#404144"/>
<path fill-rule="evenodd" clip-rule="evenodd" d="M189.967 192.031C195.466 191.362 197.633 193.696 196.466 199.03C194.035 202.048 191.036 202.715 187.468 201.03C186.395 197.431 187.228 194.431 189.967 192.031Z" fill="#030303"/>
<path fill-rule="evenodd" clip-rule="evenodd" d="M168.971 192.031C176.921 192.103 178.588 195.27 173.97 201.53C165.501 202.061 163.836 198.894 168.971 192.031Z" fill="#030303"/>
<path fill-rule="evenodd" clip-rule="evenodd" d="M255.956 142.039C256.191 141.442 256.69 141.109 257.455 141.039C281.118 150.944 301.948 164.942 319.944 183.033C301.607 190.039 288.943 202.704 281.951 221.027C279.264 192.571 270.599 166.241 255.956 142.039Z" fill="#404244"/>
<path fill-rule="evenodd" clip-rule="evenodd" d="M104.982 140.039C105.721 139.908 106.388 140.075 106.982 140.539C97.8582 153.89 91.0264 168.388 86.4852 184.033C83.2538 196.525 80.9212 209.19 79.4864 222.027C73.2865 202.495 60.4548 189.664 40.9932 183.533C60.0578 165.622 81.3871 151.124 104.982 140.039Z" fill="#424245"/>
<path fill-rule="evenodd" clip-rule="evenodd" d="M48.9917 102.044C67.3105 102.652 83.9746 108.151 98.983 118.542C103.463 121.855 107.462 125.689 110.981 130.04C87.528 138.013 67.0315 150.677 49.4916 168.035C56.8643 151.381 58.53 134.051 54.4907 116.042C52.922 111.243 51.0883 106.578 48.9917 102.044Z" fill="#414144"/>
<path fill-rule="evenodd" clip-rule="evenodd" d="M306.947 102.044C308.734 101.759 310.401 102.092 311.946 103.044C303.516 119.273 301.683 136.27 306.447 154.037C307.855 158.145 309.187 162.145 310.446 166.035C293.525 149.787 274.028 137.622 251.956 129.54C267.211 114.181 285.54 105.017 306.947 102.044Z" fill="#414245"/>
</svg>
