<svg width="360" height="412" viewBox="0 0 360 412" fill="none" xmlns="http://www.w3.org/2000/svg">
<path fill-rule="evenodd" clip-rule="evenodd" d="M179.502 0C236.821 24.8673 296.966 36.4187 359.938 34.6542C360.104 91.4496 359.938 148.244 359.439 205.037C357.433 245.191 343.809 281.128 318.567 312.85C289.88 346.334 255.819 373.448 216.386 394.192C204.179 400.005 192.051 405.941 180 412C141.897 395.139 106.841 373.8 74.8287 347.986C50.762 327.653 31.6557 303.747 17.5079 276.271C7.96475 256.415 2.3154 235.559 0.560887 213.701C0.0624454 154.02 -0.104034 94.3374 0.0624454 34.6542C48.3924 35.639 95.5779 29.0614 141.62 14.9206C154.696 10.7713 167.324 5.79784 179.502 0Z" fill="#020302"/>
<path fill-rule="evenodd" clip-rule="evenodd" d="M348.972 45.243C349.273 101.728 348.94 158.202 347.975 214.664C347.867 158.679 347.867 102.525 347.975 46.2056C344.635 46.3645 341.313 46.2037 338.006 45.7243C341.646 45.244 345.301 45.0842 348.972 45.243Z" fill="#178E65"/>
<path fill-rule="evenodd" clip-rule="evenodd" d="M54.891 43.3177C50.0052 44.6625 43.692 45.4653 35.9502 45.7243C27.9821 46.2056 20.007 46.3654 12.025 46.2056C12.3559 101.88 12.024 157.39 11.0281 212.738C11.0281 156.907 11.0281 101.075 11.0281 45.243C25.6573 44.7607 40.2776 44.1196 54.891 43.3177Z" fill="#1E9A6D"/>
<path fill-rule="evenodd" clip-rule="evenodd" d="M348.972 45.243C345.301 45.0841 341.647 45.2439 338.006 45.7243C341.313 46.2037 344.635 46.3644 347.975 46.2056C347.867 102.525 347.867 158.679 347.975 214.664C343.492 256.361 326.378 292.3 296.635 322.477C262.666 355.417 223.621 381.408 179.501 400.449C132.797 379.903 91.7587 351.666 56.3863 315.738C29.9489 286.19 14.8292 251.857 11.0281 212.738C12.024 157.39 12.3559 101.88 12.025 46.2056C20.007 46.3654 27.9821 46.2056 35.9502 45.7243C43.692 45.4653 50.0052 44.6625 54.891 43.3177C98.2504 38.675 140.12 28.0863 180.498 11.5514C234.371 34.0198 290.529 45.2497 348.972 45.243Z" fill="#136C49"/>
<path fill-rule="evenodd" clip-rule="evenodd" d="M120.685 83.7476C141.865 83.0209 159.974 89.7592 175.015 103.963C201.588 90.6227 229.336 87.8956 258.255 95.7804C283.641 103.929 301.75 119.812 312.585 143.43C327.805 182.1 327.638 220.765 312.087 259.425C310.832 260.371 309.503 260.691 308.099 260.388C304.217 256.244 300.23 252.234 296.137 248.355C286.924 253.674 276.955 256.882 266.23 257.981C259.917 270.175 253.603 282.367 247.289 294.561C256.072 299.032 262.219 305.77 265.732 314.776C266.472 316.644 266.306 318.409 265.233 320.07C260.295 319.283 255.31 318.32 250.28 317.182C245.628 316.54 240.976 316.54 236.324 317.182C220.923 323.174 205.638 329.431 190.467 335.953C188.682 335.509 187.685 334.385 187.476 332.584C187.932 328.125 189.261 323.954 191.464 320.07C180.969 321.325 170.501 323.09 160.062 325.364C159.292 325.225 158.628 324.904 158.068 324.402C159.086 318.881 161.91 314.229 166.542 310.444C168.868 308.839 171.194 307.236 173.52 305.631C152.731 308.523 131.962 311.892 111.215 315.738C109.598 315.301 108.435 314.339 107.726 312.85C110.472 308.111 113.795 303.78 117.695 299.855C112.441 299.658 107.291 299.497 102.243 299.374C101.578 298.091 101.578 296.807 102.243 295.523C109.811 285.047 120.278 279.431 133.645 278.678C142.371 277.961 151.011 278.443 159.564 280.121C167.581 272.732 175.556 265.353 183.489 257.981C178.593 252.774 174.273 247.158 170.529 241.136C146.276 230.871 128.166 214.346 116.199 191.561C113.623 185.7 112.128 179.603 111.713 173.271C103.691 170.973 95.5497 169.048 87.2896 167.495C80.4121 168.425 73.9323 170.511 67.8503 173.752C54.0604 181.532 40.436 189.555 26.9781 197.818C25.3163 198.46 23.6555 198.46 21.9937 197.818C22.7872 185.168 26.9402 173.457 34.4547 162.682C42.7617 150.81 53.0635 140.863 65.3581 132.841C69.3028 111.375 81.7638 96.4542 102.741 88.0794C108.775 86.3015 114.757 84.8575 120.685 83.7476Z" fill="#020201"/>
<path fill-rule="evenodd" clip-rule="evenodd" d="M314.081 181.935C314.489 192.386 313.99 202.974 312.585 213.701C311.774 207.702 310.777 208.023 309.595 214.664C309.263 214.343 308.93 214.021 308.598 213.701C307.286 208.433 305.127 203.619 302.118 199.262C294.79 186.23 285.32 174.678 273.707 164.607C273.042 165.25 273.042 165.891 273.707 166.533C283.618 178.033 291.925 190.547 298.629 204.075C299.294 205.679 299.294 207.283 298.629 208.888C283.029 193.568 267.411 178.166 251.776 162.682C251.819 164.395 252.484 165.998 253.769 167.495C263.82 180.414 274.619 192.767 286.168 204.556C265.187 196.717 247.741 184.043 233.832 166.533C234.628 170.326 236.29 173.855 238.816 177.121C250.613 191.398 265.068 202.468 282.181 210.332C263.401 208.486 246.454 202.069 231.339 191.079C225.525 186.106 219.709 181.133 213.894 176.159C216.827 183.511 221.646 189.768 228.349 194.93C238.002 202.311 248.634 208.087 260.249 212.257C233.07 211.961 210.307 202.176 191.963 182.897C195.474 191.351 201.288 198.249 209.408 203.593C231.9 217.048 256.49 223.625 283.177 223.327C290.503 223.059 297.814 222.577 305.109 221.883C307.04 221.766 308.369 220.964 309.096 219.477C309.816 219.879 310.315 220.52 310.592 221.402C311.086 219.924 310.921 218.48 310.093 217.07C310.223 216.051 310.721 215.249 311.589 214.664C311.755 216.107 311.921 217.551 312.087 218.995C311.076 226.601 309.747 234.141 308.1 241.617C308.361 243.04 308.029 244.323 307.103 245.467C303.076 241.737 299.587 237.566 296.635 232.953C293.083 238.94 287.933 243.272 281.184 245.949C275.495 248.745 269.514 249.708 263.24 248.836C261.459 248.081 259.964 246.958 258.754 245.467C258.502 248.066 258.502 250.634 258.754 253.168C249.316 269.464 241.009 286.149 233.832 303.224C242.409 300.286 249.554 302.371 255.265 309.481C246.609 308.556 237.97 308.878 229.346 310.444C218.853 314.787 208.718 319.761 198.941 325.364C199.441 322.266 200.936 319.539 203.427 317.182C208.246 314.052 213.23 311.164 218.38 308.519C211.738 308.791 205.091 309.433 198.442 310.444C189.864 312.678 181.224 314.283 172.523 315.257C178.999 310.205 186.31 306.675 194.455 304.668C204.687 302.5 214.988 300.736 225.358 299.374C231.28 287.616 236.929 275.744 242.305 263.757C220.852 254.6 202.077 241.765 185.981 225.252C187.069 229.452 188.897 233.462 191.464 237.285C164.75 231.356 143.649 217.398 128.162 195.411C124.455 188.682 121.629 181.623 119.688 174.234C128.446 173.133 135.923 169.603 142.118 163.645C143.097 162.433 143.429 161.15 143.115 159.794C133.916 166.126 123.781 167.891 112.71 165.089C104.826 163.587 97.1828 161.34 89.7819 158.35C92.6061 156.264 95.4313 154.179 98.2554 152.093C98.8446 151.147 98.5116 150.505 97.2585 150.168C74.2834 160.364 52.5174 172.076 31.9626 185.304C40.2707 164.441 54.3935 148.236 74.3302 136.692C76.0349 138.083 77.8632 138.884 79.8131 139.098C74.7818 134.619 73.6184 129.325 76.324 123.215C86.8371 104.006 103.452 93.7377 126.168 92.4112C144.965 93.3873 160.749 100.446 173.52 113.589C202.06 98.8492 231.635 96.4426 262.243 106.369C286.254 117.692 302.037 135.822 309.595 160.757C311.794 167.684 313.289 174.743 314.081 181.935Z" fill="#913814"/>
<path fill-rule="evenodd" clip-rule="evenodd" d="M302.118 199.262C304.641 205.929 306.967 212.667 309.096 219.477C308.369 220.964 307.04 221.766 305.109 221.883C297.814 222.577 290.502 223.059 283.177 223.327C256.49 223.626 231.9 217.048 209.408 203.593C201.288 198.249 195.473 191.351 191.962 182.897C210.307 202.176 233.07 211.961 260.249 212.257C248.634 208.087 238.001 202.311 228.349 194.93C221.646 189.768 216.827 183.511 213.894 176.159C219.709 181.133 225.524 186.106 231.339 191.079C246.454 202.069 263.401 208.486 282.18 210.332C265.068 202.468 250.613 191.398 238.816 177.122C236.29 173.855 234.628 170.326 233.832 166.533C247.741 184.043 265.187 196.717 286.168 204.556C274.619 192.767 263.82 180.414 253.769 167.495C252.484 165.998 251.819 164.395 251.775 162.682C267.411 178.166 283.029 193.568 298.629 208.888C299.294 207.283 299.294 205.679 298.629 204.075C291.925 190.547 283.618 178.033 273.707 166.533C273.042 165.891 273.042 165.25 273.707 164.607C285.32 174.678 294.79 186.23 302.118 199.262Z" fill="#080100"/>
<path fill-rule="evenodd" clip-rule="evenodd" d="M78.8161 147.28C81.1509 147.545 81.1509 148.347 78.8161 149.687C77.5611 150.632 76.2322 150.953 74.8286 150.65C76.4166 149.736 77.7455 148.614 78.8161 147.28Z" fill="#0D0200"/>
<path fill-rule="evenodd" clip-rule="evenodd" d="M100.748 120.327C111.446 120.21 115.6 125.023 113.209 134.766C107.892 139.9 102.575 139.9 97.2587 134.766C94.4385 128.871 95.6019 124.058 100.748 120.327Z" fill="#030000"/>
<path fill-rule="evenodd" clip-rule="evenodd" d="M314.081 181.935C316.287 202.342 314.293 222.236 308.099 241.617C309.747 234.141 311.076 226.601 312.087 218.995C311.921 217.551 311.755 216.107 311.589 214.664C310.721 215.249 310.223 216.051 310.093 217.07C310.921 218.48 311.086 219.924 310.592 221.402C310.315 220.52 309.816 219.879 309.096 219.477C306.967 212.667 304.641 205.929 302.118 199.262C305.127 203.619 307.286 208.433 308.598 213.701C308.93 214.021 309.263 214.343 309.595 214.664C310.777 208.023 311.774 207.702 312.585 213.701C313.99 202.974 314.488 192.386 314.081 181.935Z" fill="#B14318"/>
<path fill-rule="evenodd" clip-rule="evenodd" d="M218.38 261.832C222.5 263.661 226.488 265.747 230.343 268.089C225.881 276.226 221.56 284.408 217.383 292.636C212.817 294.068 208.166 294.549 203.427 294.079C198.958 291.997 194.472 289.911 189.969 287.822C189.354 286.909 189.519 286.107 190.467 285.416C199.964 277.684 209.269 269.823 218.38 261.832Z" fill="#156D4A"/>
<path fill-rule="evenodd" clip-rule="evenodd" d="M153.583 294.561C149.104 294.103 144.783 293.461 140.623 292.636C135.032 291.795 128.053 291.314 119.688 291.192C121.017 290.55 122.347 289.908 123.676 289.266C123.449 288.882 123.116 288.722 122.679 288.785C128.968 286.432 135.615 285.47 142.617 285.897C149.813 285.818 156.791 286.46 163.551 287.822C163.973 288.91 165.303 289.071 167.539 288.304C170.696 285.255 173.852 282.207 177.009 279.159C178.692 279.953 178.859 280.916 177.508 282.047C178.031 282.713 178.696 283.194 179.502 283.491C176.599 285.279 175.103 287.686 175.016 290.71C178.222 291.636 181.378 292.759 184.486 294.079C184.154 294.4 183.821 294.722 183.489 295.042C178.275 296.039 173.291 295.558 168.536 293.598C163.668 293.481 158.684 293.801 153.583 294.561Z" fill="#913815"/>
<path fill-rule="evenodd" clip-rule="evenodd" d="M122.679 288.785C123.116 288.722 123.449 288.882 123.676 289.266C122.347 289.908 121.017 290.55 119.688 291.192C128.053 291.314 135.032 291.795 140.623 292.636C132.309 292.795 124.002 292.636 115.701 292.154C117.771 290.513 120.097 289.39 122.679 288.785Z" fill="#D7571F"/>
<path fill-rule="evenodd" clip-rule="evenodd" d="M153.582 294.561C158.683 293.801 163.668 293.481 168.536 293.598C173.291 295.558 178.275 296.039 183.489 295.042C183.821 294.722 184.154 294.4 184.486 294.079C181.378 292.759 178.221 291.636 175.015 290.71C175.103 287.686 176.598 285.279 179.501 283.491C178.696 283.194 178.031 282.713 177.508 282.047C178.858 280.916 178.692 279.953 177.009 279.159C173.852 282.207 170.696 285.255 167.539 288.304C165.303 289.071 163.973 288.91 163.551 287.822C164.6 287.966 165.597 287.806 166.542 287.341C175.347 278.838 184.154 270.335 192.959 261.832C195.534 263.154 198.026 264.598 200.436 266.164C192.431 274.215 184.124 281.916 175.514 289.266C181.067 290.948 186.384 293.195 191.464 296.005C167.948 296.367 145.019 300.056 122.679 307.075C122.347 306.754 122.014 306.433 121.682 306.112C130.288 299.215 140.257 295.846 151.589 296.005C152.917 295.684 154.247 295.363 155.576 295.042C154.984 294.595 154.319 294.435 153.582 294.561Z" fill="#A33E16"/>
</svg>
