<svg width="360" height="412" viewBox="0 0 360 412" fill="none" xmlns="http://www.w3.org/2000/svg">
<path fill-rule="evenodd" clip-rule="evenodd" d="M329 35.9128C339.15 36.9044 349.49 37.2376 360 36.9104C360 90.4475 360 143.984 360 197.521C359.78 230.592 350.95 261.185 333.5 289.298C311.75 322.298 284.59 350.064 252 372.596C229.49 387.903 205.65 401.039 180.5 412C132.793 391.547 90.7933 362.949 54.5003 326.208C28.8603 298.668 11.8602 266.413 3.50025 229.443C2.06525 222.186 1.06525 214.87 0.50025 207.496C-0.16675 150.302 -0.16675 93.107 0.50025 35.9128C52.4472 37.8501 102.947 30.0361 152 12.4697C161.46 8.60312 170.79 4.44721 180 0C227.17 22.1542 276.83 34.1252 329 35.9128Z" fill="#020301"/>
<path fill-rule="evenodd" clip-rule="evenodd" d="M211 24.9395C228.45 30.4082 246.11 35.0629 264 38.9056C263.4 39.543 262.57 39.8752 261.5 39.9031C244.14 36.2031 227.31 31.2152 211 24.9395Z" fill="#F2E83F"/>
<path fill-rule="evenodd" clip-rule="evenodd" d="M103 37.908C95.8622 40.4129 87.8622 42.2414 79.0002 43.3946C73.3512 44.1498 67.6842 44.6486 62.0002 44.891C75.5212 42.4759 89.1872 40.1485 103 37.908Z" fill="#EFE13F"/>
<path fill-rule="evenodd" clip-rule="evenodd" d="M11.0002 46.8862C10.8332 97.0984 11.0002 147.31 11.5002 197.521C11.7772 207.272 12.9442 216.916 15.0002 226.45C14.9802 227.673 14.6472 228.671 14.0002 229.443C12.1332 219.895 10.9662 210.253 10.5002 200.513C9.66823 149.136 9.83523 97.9273 11.0002 46.8862Z" fill="#F8F454"/>
<path fill-rule="evenodd" clip-rule="evenodd" d="M297 44.891C314.63 46.3754 332.3 47.0398 350 46.8861C350.17 100.424 350 153.96 349.5 207.496C348.89 212.48 348.39 217.468 348 222.46C347.35 221.513 347.01 220.35 347 218.968C347.6 214.49 348.1 210.001 348.5 205.501C349 153.296 349.17 101.089 349 48.8813C336.99 48.582 324.99 48.0832 313 47.3849C306.89 46.9789 301.55 46.1479 297 44.891Z" fill="#FAF250"/>
<path fill-rule="evenodd" clip-rule="evenodd" d="M211 24.9395C227.31 31.2152 244.14 36.2031 261.5 39.9031C262.57 39.8752 263.4 39.543 264 38.9056C275 41.4534 286 43.4485 297 44.891C301.55 46.148 306.89 46.979 313 47.385C324.99 48.0833 336.99 48.5821 349 48.8813C349.17 101.089 349 153.296 348.5 205.501C348.1 210.001 347.6 214.49 347 218.969C347.01 220.35 347.35 221.513 348 222.46C348 223.125 347.67 223.458 347 223.458C343.91 235.547 340.07 247.518 335.5 259.37C335.28 257.936 334.78 256.606 334 255.38C331.67 256.697 329.67 258.36 328 260.368C329.84 261.096 331.67 261.762 333.5 262.363C333.82 263.768 333.48 265.098 332.5 266.354C332.17 266.021 331.83 265.688 331.5 265.356C330.59 267.515 329.42 269.51 328 271.341C326.17 270.561 324.67 271.226 323.5 273.337C322.43 272.558 321.26 272.725 320 273.835C320.33 274.168 320.67 274.501 321 274.833C319.65 275.603 318.82 276.767 318.5 278.324C318.08 276.872 317.24 276.373 316 276.828C315.25 278.558 314.75 280.386 314.5 282.315C313.46 281.194 312.79 279.865 312.5 278.324C311.67 279.484 310.84 280.648 310 281.816C310.17 282.315 310.33 282.814 310.5 283.312C311.22 282.364 312.05 282.198 313 282.814C308.95 288.765 307.61 288.1 309 280.818C307.83 280.32 307 279.489 306.5 278.324C305.75 278.949 304.92 279.448 304 279.821C305.14 280.56 305.14 281.392 304 282.315C307.86 283.41 307.86 284.241 304 284.809C305.46 285.231 305.96 286.062 305.5 287.303C303.82 286.743 302.49 285.745 301.5 284.31C300.49 285.145 299.32 285.477 298 285.308C298.15 287.744 297.31 288.409 295.5 287.303C294.77 284.937 293.93 282.609 293 280.32C293.67 279.987 294.33 279.654 295 279.322C293.95 277.724 294.62 276.893 297 276.828C295.67 276.163 294.33 275.498 293 274.833C295.8 274.374 298.47 274.873 301 276.329C303.59 275.11 304.42 273.115 303.5 270.344C302.23 267.46 300.73 264.799 299 262.363C281.31 225.05 258.64 191.132 231 160.61C226.33 153.959 220.67 148.307 214 143.651C204.84 136.691 195.51 129.874 186 123.201C183.46 121.001 181.29 118.507 179.5 115.719C174.74 105.888 169.74 96.2444 164.5 86.7893C156.77 78.0426 147.6 71.3917 137 66.8378C127.42 62.7158 117.42 61.8848 107 64.3438C103.635 64.8476 100.635 66.0118 98.0003 67.8353C93.3703 70.8141 88.7033 73.8068 84.0003 76.8135C73.7943 78.7159 63.4613 80.5445 53.0003 82.3002C46.0153 84.1797 39.3483 86.8392 33.0003 90.2809C31.7623 90.9692 31.7623 91.468 33.0003 91.7772C30.8103 92.6491 29.8103 94.3121 30.0003 96.7651C30.1113 97.3806 30.4443 97.8794 31.0003 98.2615C40.9973 99.2032 50.9973 100.035 61.0003 100.755C79.2143 103.287 90.5473 113.595 95.0003 131.68C94.4993 134.011 93.4993 136.006 92.0003 137.666C90.7073 139.005 89.8743 140.668 89.5003 142.654C88.8333 147.974 88.8333 153.295 89.5003 158.615C91.0243 165.82 92.0243 173.136 92.5003 180.562C93.1963 185.6 94.6963 190.254 97.0003 194.528C98.4673 201.929 101.467 208.58 106 214.479C115.43 228.377 127.097 240.181 141 249.893C147.6 253.683 154.27 257.175 161 260.368C165.87 262.824 171.04 264.819 176.5 266.354C178.09 268.34 179.59 270.335 181 272.339C173.56 279.215 165.89 285.865 158 292.291C154.75 294.189 151.75 296.517 149 299.274C139.818 296.373 130.818 296.871 122 300.77C121.444 301.152 121.111 301.651 121 302.266C115.166 305.925 112.499 311.246 113 318.228C114.792 318.361 116.458 318.029 118 317.23C121.171 313.485 125.171 311.657 130 311.743C126.794 315.876 127.46 319.036 132 321.22C135.775 318.007 140.109 315.845 145 314.736C152.67 314.071 160.33 314.071 168 314.736C165.26 315.76 162.93 317.256 161 319.225C158.21 321.681 156.21 324.674 155 328.203C156.44 332.93 158.44 333.262 161 329.201C177.4 323.374 194.06 322.043 211 325.211C216.23 324.111 216.23 323.28 211 322.717C216.29 321.674 221.29 322.173 226 324.213C227.98 324.229 228.98 323.231 229 321.22C228.43 318.414 227.1 316.087 225 314.237C223.66 312.947 221.99 312.116 220 311.743C214.03 310.839 208.03 310.174 202 309.748C207.27 305.001 211.93 299.847 216 294.286C220.75 290.048 225.42 285.559 230 280.818C234.39 280.516 238.73 279.851 243 278.823C244.43 278.359 245.6 277.527 246.5 276.329C246.88 276.884 247.38 277.216 248 277.327C257.47 292.892 266.97 308.521 276.5 324.213C278.52 327.895 280.19 331.553 281.5 335.186C251.8 361.236 218.96 382.684 183 399.53C181.67 400.196 180.33 400.196 179 399.53C150.69 386.417 124.022 370.788 99.0003 352.644C93.8053 348.289 88.8053 343.8 84.0003 339.177C76.6193 331.148 68.9523 323.5 61.0003 316.232C37.7893 291.548 22.1223 262.619 14.0003 229.443C14.6473 228.671 14.9803 227.673 15.0003 226.45C12.9443 216.915 11.7773 207.272 11.5003 197.521C11.0003 147.31 10.8333 97.0983 11.0003 46.8862C28.0273 46.8403 45.0273 46.1749 62.0003 44.891C67.6843 44.6486 73.3513 44.1498 79.0003 43.3947C87.8623 42.2415 95.8623 40.4129 103 37.908C129.537 31.6342 155.54 23.3214 181 12.9685C191.17 16.7892 201.17 20.7795 211 24.9395Z" fill="#FABB23"/>
<path fill-rule="evenodd" clip-rule="evenodd" d="M197 207.496C202.15 206.348 207.48 206.183 213 206.998C229.89 223.069 248.56 236.702 269 247.898C274.1 250.774 279.43 253.103 285 254.881C286.26 256.215 286.76 257.711 286.5 259.37C271.93 255.3 258.09 249.481 245 241.913C228.82 230.584 212.82 219.112 197 207.496Z" fill="#177451"/>
<path fill-rule="evenodd" clip-rule="evenodd" d="M223 201.511C225.15 201.383 227.15 201.882 229 203.007C242.31 213.308 256.31 222.619 271 230.94C275.05 235.208 277.88 240.029 279.5 245.404C256.34 234.749 235.17 221.116 216 204.504C218.5 203.647 220.83 202.649 223 201.511Z" fill="#17724F"/>
<path fill-rule="evenodd" clip-rule="evenodd" d="M177 206.499C181.21 205.388 185.54 205.554 190 206.998C205.71 219.683 221.71 231.986 238 243.908C215.82 234.504 195.49 222.034 177 206.499Z" fill="#187754"/>
<path fill-rule="evenodd" clip-rule="evenodd" d="M97.0002 194.528C99.9822 201.101 102.982 207.752 106 214.479C101.467 208.58 98.4672 201.929 97.0002 194.528Z" fill="#EFE33B"/>
<path fill-rule="evenodd" clip-rule="evenodd" d="M110 72.8233C128.937 71.0766 144.437 77.3942 156.5 91.7773C162.33 103.405 168.66 114.712 175.5 125.695C211.29 150.754 240.95 181.679 264.5 218.47C265.17 219.135 265.17 219.8 264.5 220.465C254.24 214.6 244.4 208.116 235 201.012C230.43 198.636 230.1 195.975 234 193.032C231.95 192.707 229.95 193.041 228 194.029C222.33 194.695 216.67 194.695 211 194.029C206.87 192.068 202.87 189.907 199 187.545C198.67 187.711 198.33 187.877 198 188.044C201.33 192.034 204.67 196.024 208 200.015C196.45 199.58 186.12 195.756 177 188.542C176.67 188.709 176.33 188.875 176 189.041C179.15 193.013 182.48 196.836 186 200.513C174.12 199.649 164.29 194.329 156.5 184.552C148.74 172.626 149.24 161.154 158 150.136C155.75 150.33 153.92 151.494 152.5 153.627C143.76 164.546 142.76 176.184 149.5 188.542C174.12 219.055 204.95 241.169 242 254.881C243.88 257.127 245.38 259.621 246.5 262.363C247.18 263.644 247.02 264.808 246 265.855C233.11 274.351 221.77 272.688 212 260.867C184.92 260.063 160.25 252.082 138 236.925C115.251 219.301 103.251 196.191 102 167.593C111.861 170.111 121.195 168.615 130 163.104C132.557 160.219 134.724 157.06 136.5 153.627C138.435 147.338 140.268 141.021 142 134.673C141.52 131.688 139.853 130.524 137 131.182C134.105 138.135 128.771 141.96 121 142.654C112.754 141.578 106.921 137.256 103.5 129.685C101.597 119.49 96.7642 111.011 89.0002 104.247C99.7112 103.627 110.378 102.629 121 101.254C125.724 98.8252 127.224 95.0005 125.5 89.7822C122.097 83.679 116.93 81.185 110 82.3003C106.521 84.6067 103.521 87.4338 101 90.7797C96.7892 88.6589 92.4562 86.8303 88.0002 85.293C94.3552 79.2996 101.689 75.1437 110 72.8233Z" fill="#146D4B"/>
<path fill-rule="evenodd" clip-rule="evenodd" d="M92.0003 137.666C90.2313 143.874 89.7312 150.192 90.5002 156.62C92.1192 169.352 94.2862 181.988 97.0002 194.528C94.6962 190.254 93.1963 185.6 92.5003 180.562C92.0243 173.136 91.0243 165.82 89.5002 158.615C88.8332 153.295 88.8332 147.974 89.5002 142.654C89.8742 140.668 90.7073 139.005 92.0003 137.666Z" fill="#F1E345"/>
<path fill-rule="evenodd" clip-rule="evenodd" d="M214 143.651C220.67 148.307 226.33 153.959 231 160.61C225 155.29 219.33 149.637 214 143.651Z" fill="#FBE93A"/>
<path fill-rule="evenodd" clip-rule="evenodd" d="M100 141.656C109.352 150.143 120.019 152.138 132 147.642C132.333 147.974 132.667 148.307 133 148.639C126.853 157.856 118.186 162.013 107 161.109C100.609 160.55 97.6092 157.059 98.0002 150.634C98.6722 147.63 99.3392 144.637 100 141.656Z" fill="#F3F3F3"/>
<path fill-rule="evenodd" clip-rule="evenodd" d="M30.0002 96.7651C40.5522 97.3048 50.8852 98.6346 61.0002 100.755C50.9972 100.035 40.9972 99.2032 31.0002 98.2615C30.4442 97.8794 30.1112 97.3806 30.0002 96.7651Z" fill="#F3E840"/>
<path fill-rule="evenodd" clip-rule="evenodd" d="M71.0002 87.787C73.3572 87.6243 75.6902 87.7899 78.0002 88.2857C86.0002 92.6083 94.0002 96.9318 102 101.254C93.3322 101.006 84.9992 99.0107 77.0002 95.2688C70.2892 94.1535 63.6232 92.8227 57.0002 91.2785C61.6722 89.6295 66.3392 88.4663 71.0002 87.787Z" fill="#177A56"/>
<path fill-rule="evenodd" clip-rule="evenodd" d="M110 87.7869C111 87.7869 112 87.7869 113 87.7869C113.333 90.7796 112 92.1094 109 91.7772C108.933 90.3217 109.266 88.9919 110 87.7869Z" fill="#F7F8F6"/>
<path fill-rule="evenodd" clip-rule="evenodd" d="M84.0003 76.8136C83.2103 78.1045 82.2103 79.2686 81.0003 80.3051C63.9773 80.0617 47.9773 83.8864 33.0003 91.7773C31.7623 91.468 31.7623 90.9692 33.0003 90.2809C39.3483 86.8393 46.0153 84.1797 53.0003 82.3003C63.4613 80.5445 73.7943 78.716 84.0003 76.8136Z" fill="#F1E43E"/>
<path fill-rule="evenodd" clip-rule="evenodd" d="M137 66.8377C123.898 63.9138 110.898 64.246 98.0002 67.8353C100.635 66.0117 103.635 64.8475 107 64.3437C117.42 61.8847 127.42 62.7157 137 66.8377Z" fill="#E5D939"/>
<path fill-rule="evenodd" clip-rule="evenodd" d="M161 260.368C166.57 261.722 172.07 263.384 177.5 265.356C179.52 267.212 180.68 269.541 181 272.339C179.59 270.335 178.09 268.34 176.5 266.354C171.04 264.819 165.87 262.824 161 260.368Z" fill="#F5EA3F"/>
<path fill-rule="evenodd" clip-rule="evenodd" d="M248 277.327C247.38 277.216 246.88 276.884 246.5 276.329C245.6 277.527 244.43 278.359 243 278.823C238.73 279.851 234.39 280.516 230 280.818C225.42 285.559 220.75 290.048 216 294.286C219.76 289.038 224.09 284.216 229 279.821C233.39 279.519 237.73 278.853 242 277.826C243.79 277.043 245.29 275.879 246.5 274.334C247.54 275.076 248.04 276.074 248 277.327Z" fill="#F1E33A"/>
<path fill-rule="evenodd" clip-rule="evenodd" d="M347 223.458C341.62 255.14 328.45 283.072 307.5 307.254C298.27 294.439 289.6 281.471 281.5 268.349C288.35 271.459 295.52 273.454 303 274.334C301.67 270.344 300.33 266.354 299 262.363C300.73 264.799 302.23 267.46 303.5 270.344C304.42 273.115 303.59 275.11 301 276.329C298.47 274.873 295.8 274.374 293 274.833C294.33 275.498 295.67 276.163 297 276.828C294.62 276.893 293.95 277.724 295 279.322C294.33 279.654 293.67 279.987 293 280.32C293.93 282.609 294.77 284.937 295.5 287.303C297.31 288.409 298.15 287.744 298 285.308C299.32 285.477 300.49 285.145 301.5 284.31C302.49 285.745 303.82 286.743 305.5 287.303C305.96 286.062 305.46 285.231 304 284.809C307.86 284.241 307.86 283.41 304 282.315C305.14 281.392 305.14 280.56 304 279.821C304.92 279.448 305.75 278.949 306.5 278.324C307 279.489 307.83 280.32 309 280.818C307.61 288.1 308.95 288.765 313 282.814C312.05 282.198 311.22 282.364 310.5 283.312C310.33 282.814 310.17 282.315 310 281.816C310.84 280.648 311.67 279.484 312.5 278.324C312.79 279.865 313.46 281.195 314.5 282.315C314.75 280.386 315.25 278.558 316 276.828C317.24 276.373 318.08 276.872 318.5 278.324C318.82 276.767 319.65 275.603 321 274.833C320.67 274.501 320.33 274.168 320 273.835C321.26 272.725 322.43 272.558 323.5 273.337C324.67 271.226 326.17 270.561 328 271.341C329.42 269.51 330.59 267.515 331.5 265.356C331.83 265.688 332.17 266.021 332.5 266.354C333.48 265.098 333.82 263.768 333.5 262.363C331.67 261.762 329.84 261.096 328 260.368C329.67 258.36 331.67 256.697 334 255.38C334.78 256.606 335.28 257.936 335.5 259.37C340.07 247.518 343.91 235.547 347 223.458Z" fill="#F8C129"/>
<path fill-rule="evenodd" clip-rule="evenodd" d="M208 269.346C211.83 270.995 214.33 273.655 215.5 277.327C205.46 288.339 195.79 299.646 186.5 311.244C179.5 306.92 172 303.761 164 301.767C178.31 290.298 192.97 279.492 208 269.346Z" fill="#F9BF27"/>
<path fill-rule="evenodd" clip-rule="evenodd" d="M250 258.373C250.06 257.831 250.39 257.499 251 257.375C257.04 259.716 263.04 262.043 269 264.358C279.3 280.454 289.8 296.415 300.5 312.242C300.92 314.525 300.25 316.52 298.5 318.228C295.17 321.552 291.83 324.878 288.5 328.203C275.89 304.704 263.06 281.428 250 258.373Z" fill="#156E4B"/>
<path fill-rule="evenodd" clip-rule="evenodd" d="M158 292.291C155.87 294.914 153.54 297.408 151 299.772C140.795 298.405 130.795 299.237 121 302.266C121.111 301.651 121.444 301.152 122 300.77C130.818 296.871 139.818 296.373 149 299.274C151.75 296.517 154.75 294.189 158 292.291Z" fill="#EEDF3A"/>
<path fill-rule="evenodd" clip-rule="evenodd" d="M216 294.286C211.93 299.847 207.27 305.001 202 309.748C208.03 310.174 214.03 310.838 220 311.743C221.99 312.116 223.66 312.947 225 314.237C216.47 312.259 207.8 311.095 199 310.746C204.54 305.057 210.2 299.57 216 294.286Z" fill="#FAE93A"/>
<path fill-rule="evenodd" clip-rule="evenodd" d="M161 319.225C162.93 317.256 165.26 315.76 168 314.736C160.33 314.071 152.67 314.071 145 314.736C140.109 315.845 135.775 318.007 132 321.22C127.46 319.036 126.794 315.876 130 311.743C125.171 311.656 121.171 313.485 118 317.23C118.359 315.363 119.359 313.867 121 312.741C124.731 310.48 128.731 309.483 133 309.748C130.19 312.315 129.19 315.308 130 318.726C131.333 319.392 132.667 319.392 134 318.726C136.824 316.12 140.158 314.458 144 313.738C154.02 312.908 164.02 313.074 174 314.237C169.54 315.63 165.21 317.293 161 319.225Z" fill="#F0E43E"/>
<path fill-rule="evenodd" clip-rule="evenodd" d="M61.0002 316.232C68.9522 323.5 76.6192 331.148 84.0002 339.177C75.3542 332.547 67.6882 324.899 61.0002 316.232Z" fill="#F1E43B"/>
<path fill-rule="evenodd" clip-rule="evenodd" d="M226 324.213C221.29 322.173 216.29 321.674 211 322.717C216.23 323.28 216.23 324.111 211 325.211C194.06 322.043 177.4 323.374 161 329.201C163.46 326.87 166.46 325.373 170 324.712C187.94 322.246 205.94 320.916 224 320.722C225.32 321.536 225.99 322.7 226 324.213Z" fill="#EECF35"/>
</svg>
