<svg width="360" height="412" viewBox="0 0 360 412" fill="none" xmlns="http://www.w3.org/2000/svg">
<path fill-rule="evenodd" clip-rule="evenodd" d="M178.536 0C236.285 24.6525 296.767 36.392 360 35.2178C359.172 94.8111 358.674 154.472 358.504 214.201C353.509 258.585 335.562 297.18 304.663 329.986C269.048 365.882 227.332 393.22 179.533 412C127.546 390.951 82.8441 360.075 45.4285 319.372C19.5101 288.484 4.5542 253.105 0.560985 213.237C0.0624562 153.737 -0.104052 94.237 0.0624563 34.7354C49.5434 36.1074 97.7351 29.1922 144.636 13.9906C156.371 10.0748 167.668 5.41119 178.536 0Z" fill="#030101"/>
<path fill-rule="evenodd" clip-rule="evenodd" d="M348.035 44.3841C349.341 101.807 349.341 159.377 348.035 217.096C347.985 160.343 347.985 103.416 348.035 46.3138C343.04 46.474 338.055 46.3129 333.079 45.8314C338.244 45.6635 343.23 45.1811 348.035 44.3841Z" fill="#F83626"/>
<path fill-rule="evenodd" clip-rule="evenodd" d="M20.0035 45.349C23.0126 45.1898 26.0038 45.3509 28.977 45.8314C23.0037 46.3129 17.0213 46.474 11.03 46.3138C11.361 98.2586 11.029 150.04 10.033 201.658C10.033 149.555 10.033 97.452 10.033 45.349C13.3561 45.349 16.6803 45.349 20.0035 45.349Z" fill="#F43625"/>
<path fill-rule="evenodd" clip-rule="evenodd" d="M348.035 44.3841C343.229 45.1811 338.244 45.6635 333.079 45.8314C338.055 46.3129 343.04 46.474 348.035 46.3138C347.985 103.416 347.985 160.343 348.035 217.096C342.691 256.372 326.579 290.785 299.678 320.337C265.499 355.019 225.617 381.714 180.031 400.422C132.663 380.736 91.4516 352.755 56.3961 316.478C27.3608 283.505 11.9064 245.232 10.033 201.658C11.029 150.04 11.361 98.2586 11.03 46.3138C17.0213 46.474 23.0037 46.3129 28.977 45.8314C26.0038 45.3509 23.0126 45.1897 20.0035 45.349C75.2146 44.2779 128.224 33.0208 179.034 11.5785C216.035 26.6015 254.422 36.7327 294.194 41.9719C312.091 43.8679 330.038 44.6716 348.035 44.3841Z" fill="#C21E16"/>
<path fill-rule="evenodd" clip-rule="evenodd" d="M28.9771 64.6464C33.8088 66.579 37.6315 69.7949 40.4432 74.2951C50.2234 89.8199 56.8708 106.545 60.3844 124.468C62.8292 137.375 65.4873 150.241 68.3608 163.063C70.2184 169.555 73.376 175.344 77.8329 180.431C79.0254 179.409 79.6904 178.122 79.827 176.571C77.121 142.223 83.9349 109.739 100.267 79.1194C103.392 73.0407 107.879 68.2164 113.727 64.6464C115.389 64.9677 116.386 65.9325 116.718 67.541C108.799 77.7213 102.984 88.9785 99.2696 101.311C91.5065 123.229 87.8503 145.743 88.302 168.852C99.8718 157.829 113.499 154.292 129.181 158.239C143.844 155.56 158.634 154.274 173.55 154.379C178.067 141.65 184.707 130.071 193.491 119.644C198.576 118.663 202.724 120.271 205.955 124.468C205.596 133.92 204.1 143.248 201.468 152.45C203.103 154.62 205.257 156.227 207.949 157.274C218.986 143.305 229.296 128.832 238.858 113.855C245.767 106.482 253.086 106.16 260.793 112.89C262.757 116.491 263.754 120.35 263.784 124.468C268.739 132.448 272.887 140.81 276.247 149.555C279.886 150.403 283.546 151.208 287.215 151.967C289.957 154.08 289.628 155.689 286.218 156.792C283.825 156.971 281.502 157.453 279.238 158.239C280.245 162.004 281.91 165.381 284.224 168.37C288.042 169.051 291.692 170.176 295.191 171.747C296.119 172.894 296.448 174.18 296.188 175.607C292.798 175.298 289.478 175.619 286.218 176.571C287.953 179.996 289.279 183.534 290.206 187.185C295.52 187.014 299.848 188.783 303.168 192.492C300.037 193.692 296.717 194.336 293.197 194.422C294.693 197.321 295.69 200.376 296.188 203.588C301.004 204.337 305.491 205.945 309.649 208.412C310.327 209.651 310.167 210.777 309.15 211.789C306.159 212.111 303.168 212.433 300.177 212.754C301.343 214.691 302.011 216.78 302.171 219.026C306.318 219.989 310.307 221.436 314.135 223.368C315.013 224.676 315.342 226.123 315.132 227.71C311.633 227.505 308.303 227.505 305.162 227.71C308.582 236.131 310.915 244.815 312.141 253.761C318.154 252.966 323.298 254.574 327.596 258.585C328.603 260.057 329.101 261.665 329.091 263.41C320.905 261.688 312.6 261.046 304.165 261.48C302.729 250.135 299.738 239.2 295.191 228.674C289.289 234.213 282.309 237.911 274.253 239.77C264.721 241.892 255.08 243.34 245.338 244.112C248.15 255.563 250.304 267.141 251.819 278.848C260.942 280.212 269.417 283.267 277.244 288.014C281.282 291.488 282.947 295.829 282.23 301.04C279.547 299.917 277.224 298.148 275.25 295.733C265.818 291.36 255.847 289.109 245.338 288.979C236.425 273.885 227.78 258.609 219.415 243.148C211.488 244.243 203.512 244.404 195.486 243.63C192.195 243.189 189.045 242.384 186.014 241.218C185.515 253.757 185.346 266.301 185.515 278.848C197.809 281.584 208.278 287.373 216.922 296.215C219.156 299.478 219.824 303.016 218.916 306.829C218.508 307.27 218.009 307.592 217.421 307.794C214.46 302.484 210.142 298.464 204.459 295.733C196.891 292.221 189.084 289.487 181.028 287.532C176.542 281.419 172.553 274.986 169.064 268.234C167.608 259.282 166.77 250.276 166.571 241.218C161.795 241.363 157.139 240.72 152.612 239.288C143.913 254.839 135.77 270.598 128.184 286.567C127.686 287.049 127.187 287.532 126.689 288.014C114.928 288.318 105.124 292.66 97.2755 301.04C94.397 297.734 94.397 294.196 97.2755 290.426C103.984 284.019 112.127 280.48 121.703 279.813C128.631 264.637 135.943 249.682 143.639 234.946C141.764 233.296 140.103 231.528 138.653 229.639C139.411 227.77 140.408 226.002 141.645 224.333C139.574 224.19 137.58 224.672 135.662 225.78C132.504 233.178 129.348 240.574 126.19 247.972C115.056 259.389 103.923 270.807 92.7887 282.225C87.2959 280.9 81.6466 280.578 75.8388 281.26C71.6013 282.347 67.9451 284.438 64.8711 287.532C62.4373 285.575 62.2708 283.323 64.3726 280.778C70.8096 274.625 78.6206 271.891 87.8034 272.576C96.5217 264.134 105.828 256.415 115.721 249.419C118.374 241.406 121.033 233.366 123.697 225.297C123.531 224.815 123.365 224.333 123.199 223.85C115.468 229.121 107.325 233.785 98.7711 237.841C94.5007 241.165 91.1765 245.185 88.8005 249.902C87.2601 250.82 85.598 251.141 83.8152 250.866C83.7384 245.385 85.7326 240.721 89.7976 236.876C87.267 234.52 84.4414 234.037 81.3226 235.429C79.492 239.781 78.1619 244.283 77.3343 248.937C76.9216 249.378 76.423 249.7 75.8388 249.902C69.0568 246.438 65.2341 240.97 64.3726 233.499C62.3954 217.995 64.8881 203.201 71.8505 189.115C66.4445 181.965 62.4563 174.085 59.8859 165.475C55.3981 146.334 50.9113 127.197 46.4256 108.066C42.8761 93.8019 36.8937 80.615 28.4786 68.5058C27.9013 67.128 28.0678 65.8409 28.9771 64.6464Z" fill="#050000"/>
<path fill-rule="evenodd" clip-rule="evenodd" d="M176.541 235.429C177.858 246.21 177.858 257.145 176.541 268.234C175.933 268.115 175.604 267.793 175.544 267.269C176.532 256.828 176.871 246.215 176.541 235.429Z" fill="#4F1605"/>
<path fill-rule="evenodd" clip-rule="evenodd" d="M155.603 222.885C162.274 222.911 168.914 223.234 175.544 223.85C176.312 227.663 176.651 231.523 176.541 235.429C176.871 246.215 176.532 256.828 175.544 267.269C175.544 256.292 174.876 245.357 173.55 234.464C164.507 234.241 155.863 232.472 147.627 229.157C149.491 227.189 151.485 225.42 153.609 223.85C154.048 223.787 154.377 223.948 154.606 224.333C153.091 225.636 151.765 227.083 150.618 228.674C157.558 231.721 164.876 232.847 172.553 232.052C171.746 231.754 171.088 231.272 170.559 230.604C171.586 229.446 172.414 228.159 173.052 226.745C173.381 227.388 173.72 228.031 174.049 228.674C174.537 227.427 174.707 226.14 174.547 224.815C168.007 224.972 161.695 224.329 155.603 222.885Z" fill="#B04118"/>
<path fill-rule="evenodd" clip-rule="evenodd" d="M212.436 225.78C218.089 225.78 223.732 225.78 229.386 225.78C230.183 229.384 231.18 232.921 232.377 236.393C230.093 233.624 228.757 230.408 228.388 226.745C222.875 227.054 217.56 226.733 212.436 225.78Z" fill="#D34F1B"/>
<path fill-rule="evenodd" clip-rule="evenodd" d="M212.436 225.78C217.56 226.733 222.875 227.054 228.389 226.745C228.757 230.408 230.093 233.624 232.377 236.393C243.723 273.225 242.397 273.548 228.389 237.358C221.599 236.44 214.779 236.44 207.949 237.358C204.669 237.428 201.508 236.945 198.477 235.911C203.691 233.23 208.348 229.853 212.436 225.78Z" fill="#9A3914"/>
<path fill-rule="evenodd" clip-rule="evenodd" d="M153.609 223.85C153.948 223.042 154.616 222.719 155.603 222.885C161.695 224.329 168.007 224.972 174.547 224.815C174.707 226.14 174.537 227.427 174.049 228.675C173.72 228.031 173.381 227.388 173.052 226.745C172.414 228.159 171.586 229.446 170.559 230.604C171.088 231.272 171.746 231.754 172.553 232.052C164.876 232.847 157.558 231.721 150.618 228.675C151.765 227.083 153.091 225.636 154.606 224.333C154.377 223.948 154.048 223.787 153.609 223.85Z" fill="#8B3513"/>
<path fill-rule="evenodd" clip-rule="evenodd" d="M275.25 198.763C282.758 204.284 287.743 211.52 290.206 220.473C284.124 227.92 276.147 231.779 266.277 232.052C273.226 222 276.217 210.904 275.25 198.763Z" fill="#9B3A14"/>
<path fill-rule="evenodd" clip-rule="evenodd" d="M256.306 185.255C261.91 186.344 266.396 189.561 269.766 194.904C271.591 209.54 267.772 222.566 258.3 233.981C253.315 234.625 248.33 234.625 243.344 233.981C252.627 218.781 256.954 202.538 256.306 185.255Z" fill="#973813"/>
<path fill-rule="evenodd" clip-rule="evenodd" d="M113.727 164.993C123.51 164.648 129.326 169.15 131.176 178.501C132.903 201.693 122.766 217.935 100.765 227.227C98.4721 227.862 96.1459 228.344 93.7859 228.674C90.4777 227.72 87.1535 226.755 83.8153 225.78C79.3744 226.708 75.8847 228.959 73.3462 232.534C69.7568 208.865 77.2348 189.085 95.78 173.194C101.254 169.24 107.236 166.507 113.727 164.993Z" fill="#923713"/>
<path fill-rule="evenodd" clip-rule="evenodd" d="M240.353 176.571C248.539 177.611 251.869 182.113 250.324 190.08C249.785 203.701 246.296 216.565 239.855 228.674C239.526 226.101 239.187 223.529 238.858 220.955C238.359 220.473 237.86 219.991 237.362 219.508C231.4 218.454 225.417 217.489 219.415 216.614C228.638 204.401 235.617 191.054 240.353 176.571Z" fill="#963914"/>
<path fill-rule="evenodd" clip-rule="evenodd" d="M103.756 182.361C111.332 182.201 114.157 185.739 112.231 192.974C109.082 196.987 105.592 200.686 101.762 204.07C94.6084 205.498 91.1187 202.765 91.2932 195.869C95.2844 191.204 99.4392 186.701 103.756 182.361Z" fill="#040000"/>
<path fill-rule="evenodd" clip-rule="evenodd" d="M171.556 162.098C174.827 161.824 177.977 162.146 181.028 163.063C185.116 172.65 186.442 182.621 185.016 192.974C182.354 200.738 179.692 208.457 177.04 216.131C170.948 215.271 164.806 214.468 158.594 213.719C167.209 196.93 166.551 180.527 156.6 164.511C161.705 163.618 166.691 162.813 171.556 162.098Z" fill="#923713"/>
<path fill-rule="evenodd" clip-rule="evenodd" d="M145.633 164.993C147.268 164.787 148.763 165.109 150.119 165.958C158.515 181.701 158.684 197.46 150.618 213.237C143.408 215.084 136.096 215.888 128.683 215.649C140.67 201.203 143.33 185.282 136.659 167.888C139.576 166.486 142.567 165.521 145.633 164.993Z" fill="#953914"/>
<path fill-rule="evenodd" clip-rule="evenodd" d="M187.509 162.098C192.145 162.811 196.792 163.455 201.468 164.028C198.945 169.872 196.124 175.662 192.993 181.396C191.787 174.777 189.952 168.344 187.509 162.098Z" fill="#9E3B16"/>
<path fill-rule="evenodd" clip-rule="evenodd" d="M247.333 116.749C251.58 115.74 254.232 117.187 255.309 121.091C245.079 147.805 233.613 174.017 220.911 199.728C214.918 212.279 205.785 222.089 193.492 229.157C187.758 230.854 185.106 228.764 185.515 222.885C188.416 208.903 193.571 195.716 200.969 183.326C215.935 160.773 231.39 138.581 247.333 116.749Z" fill="#943814"/>
<path fill-rule="evenodd" clip-rule="evenodd" d="M257.303 137.977C260.494 141.224 262.986 145.084 264.781 149.555C269.158 160.281 273.814 170.894 278.74 181.396C280.056 184.223 280.714 187.117 280.734 190.08C270.365 180.319 258.569 172.6 245.338 166.923C249.137 157.174 253.125 147.525 257.303 137.977Z" fill="#C52216"/>
<path fill-rule="evenodd" clip-rule="evenodd" d="M197.48 128.328C198.217 128.201 198.886 128.363 199.474 128.81C197.26 137.21 195.605 145.733 194.488 154.379C190.849 153.953 187.19 153.631 183.521 153.415C186.093 143.936 190.74 135.574 197.48 128.328Z" fill="#CA2419"/>
</svg>
